<svg xmlns="http://www.w3.org/2000/svg" id="svg6485" width="32" height="32" version="1.1" viewBox="0 0 32 32"><g id="layer1" transform="translate(0 -1020.362)"><g id="g10633" transform="translate(-699.936 -300.123)"><path id="path9831" fill="#fff" fill-opacity="1" stroke="none" stroke-dasharray="none" stroke-dashoffset="0" stroke-linecap="round" stroke-linejoin="round" stroke-miterlimit="4" stroke-opacity="1" stroke-width="1" d="m 717.72119,1339.9765 -7.28622,0 0,-4.0907 -4e-5,-0.5267 c 0,-1.1242 -0.63815,-2.0378 -1.61779,-2.7251 l -0.35779,-0.2489 c -1.15203,-0.7324 -1.90569,-1.9968 -1.90708,-3.4221 10e-6,-2.2593 1.88321,-4.0908 4.20625,-4.0908 0.50362,0 1.00278,0.092 1.47371,0.2655 0.73297,-1.3258 2.15542,-2.1531 3.70322,-2.1536 1.50237,0 2.88938,0.7839 3.63876,2.0503 0.39544,-0.1074 0.80405,-0.1619 1.2146,-0.1622 2.50175,0 4.52981,1.9724 4.52981,4.4054 -10e-4,1.346 -0.62721,2.5659 -1.62711,3.3783 l -0.63779,0.5046 c -0.66915,0.4853 -1.61779,1.0472 -1.61779,2.7253 l 0,4.0907 0,0 m -2.42051,0 0.99784,0" opacity="1" paint-order="fill markers stroke"/><rect id="rect9833" width="11" height="2" x="710.319" y="1338.083" fill="#ed7899" fill-opacity="1" stroke="none" stroke-dasharray="none" stroke-dashoffset="0" stroke-linecap="round" stroke-linejoin="round" stroke-miterlimit="4" stroke-opacity="1" stroke-width="1" opacity="1" paint-order="fill markers stroke"/><path id="path9835" fill="#8b8e98" fill-opacity="1" stroke="none" stroke-dasharray="none" stroke-dashoffset="0" stroke-linecap="round" stroke-linejoin="round" stroke-miterlimit="4" stroke-opacity="1" stroke-width="1" d="m 722.90187,1346.5607 c 0.10017,0.2612 0.15144,0.5346 0.15193,0.8095 0,1.4434 -1.36964,2.6134 -3.05918,2.6134 -1.68954,0 -3.05918,-1.17 -3.0592,-2.6134 0,-0.6187 0.587,-1.1201 1.31109,-1.1201 0.60047,0 1.10665,0.3448 1.262,0.8153 0.58191,1.4413 2.86193,0.5745 3.39336,-0.5047 z" opacity="1" paint-order="fill markers stroke"/><path id="path9837" fill="#8b8e98" fill-opacity="1" stroke="none" stroke-dasharray="none" stroke-dashoffset="0" stroke-linecap="round" stroke-linejoin="round" stroke-miterlimit="4" stroke-opacity="1" stroke-width="1" d="m 708.96898,1346.5607 c -0.10017,0.2612 -0.15145,0.5346 -0.15194,0.8095 10e-6,1.4434 1.36965,2.6134 3.05919,2.6134 1.68954,0 3.05918,-1.17 3.05919,-2.6134 0,-0.6187 -0.58699,-1.1201 -1.31109,-1.1201 -0.60046,0 -1.10664,0.3448 -1.26199,0.8153 -0.58192,1.4413 -2.86194,0.5745 -3.39336,-0.5047 z" opacity="1" paint-order="fill markers stroke"/><path id="path9839" fill="#454a54" fill-opacity="1" fill-rule="nonzero" stroke="none" stroke-dasharray="none" stroke-dashoffset="0" stroke-linecap="round" stroke-linejoin="round" stroke-miterlimit="4" stroke-opacity="1" stroke-width="1" d="m 715.93555,302.12305 c -1.5855,5e-4 -2.99236,0.8443 -3.85938,2.125 -0.42974,-0.1256 -0.86633,-0.23633 -1.31836,-0.23633 -2.58584,0 -4.70506,2.05264 -4.70508,4.58984 0.002,1.6013 0.85009,3.02455 2.13868,3.84375 l 0.33984,0.23828 c 0.89112,0.626 1.4043,1.38036 1.4043,2.31446 l 0,0.52734 0,4.08984 a 0.50005,0.50005 0 0 0 0.5,0.5 l 7.28515,0 a 0.50005,0.50005 0 1 0 0,-1 l -6.78515,0 0,-0.99218 10,0 0,1.49218 a 0.50005,0.50005 0 1 0 1,0 l 0,-4.08984 c 0,-0.7448 0.19437,-1.17251 0.45312,-1.50391 0.25876,-0.3314 0.60775,-0.56366 0.95899,-0.81836 a 0.50005,0.50005 0 0 0 0.0156,-0.0117 l 0.63867,-0.50391 a 0.50005,0.50005 0 0 0 0.004,0 c 1.11073,-0.9024 1.81138,-2.26668 1.8125,-3.76758 0,-2.7108 -2.26474,-4.9043 -5.0293,-4.9043 -0.35689,3e-4 -0.70819,0.0669 -1.05664,0.14063 -0.87463,-1.2276 -2.25297,-2.0293 -3.79687,-2.0293 l 0,-0.004 z m 0,1 c 1.30129,0 2.49733,0.66822 3.16406,1.74023 0.49003,0.7868 0.66034,1.71998 0.45703,2.61914 -0.1805,0.6703 0.84872,0.9034 0.97461,0.2207 0.2023,-0.89466 0.10783,-1.81775 -0.22852,-2.6582 0.16138,-0.0191 0.32335,-0.0331 0.48633,-0.0332 2.23895,0 4.0293,1.7492 4.0293,3.9043 -8.9e-4,1.1912 -0.55234,2.26783 -1.44141,2.99023 l -0.61718,0.48828 c -0.31792,0.2305 -0.77731,0.52132 -1.16016,1.01172 -0.38285,0.4904 -0.66406,1.18594 -0.66406,2.11914 l 0,1.59766 -1,0 0,-2.29102 c 0,-1.2246 0.46741,-1.63703 1.00781,-2.05273 a 0.50005,0.50005 0 0 0 -0.29883,-0.90039 0.50005,0.50005 0 0 0 -0.31055,0.10742 c -0.62496,0.4807 -1.39843,1.3202 -1.39843,2.8457 l 0,2.29102 -4,0 0,-1.30664 0,-0.60157 a 0.50005,0.50005 0 0 0 -0.50782,-0.50781 0.50005,0.50005 0 0 0 -0.49218,0.50781 l 0,0.60157 0,1.30664 -1,0 c 10e-6,-0.82809 4e-5,-1.65638 0,-2.48438 0,-1.0729 -0.39835,-2.10218 -1.10743,-2.89258 a 0.50005,0.50005 0 0 0 -0.40039,-0.16992 0.50005,0.50005 0 0 0 -0.34375,0.83789 c 0.54543,0.608 0.85157,1.39911 0.85157,2.22461 4e-5,0.828 10e-6,1.65625 0,2.48438 l -1,0 0,-1.59766 0,-0.52734 c 0,-1.3134 -0.76543,-2.38647 -1.83203,-3.13477 l -0.35938,-0.24805 a 0.50005,0.50005 0 0 0 -0.0156,-0.0137 c -1.01548,-0.6456 -1.67457,-1.7507 -1.67579,-3 1e-5,-1.9815 1.64484,-3.58984 3.70508,-3.58984 0.44273,0 0.8836,0.081 1.30078,0.23437 a 0.50005,0.50005 0 0 0 0.0625,0.0195 c 0.54156,0.20783 1.02679,0.53375 1.41211,0.95508 a 0.50044056,0.50044056 0 1 0 0.73828,-0.67578 c -0.36833,-0.40276 -0.80694,-0.73557 -1.29101,-0.98828 0.69167,-0.88959 1.77831,-1.43325 2.95508,-1.43359 z m -5.08985,2.77539 c -1.47885,0.026 -2.67116,1.24856 -2.6582,2.72656 0.008,0.8914 0.44985,1.68422 1.125,2.16992 a 0.50005,0.50005 0 1 0 0.58398,-0.81054 c -0.42627,-0.30671 -0.70404,-0.80029 -0.70898,-1.36719 -0.008,-0.9398 0.73335,-1.70225 1.67578,-1.71875 a 0.50007743,0.50007743 0 1 0 -0.0176,-1 z m 11.99219,3.62109 a 0.50005,0.50005 0 0 0 -0.46289,0.30078 c -0.24383,0.5412 -0.60878,1.01964 -1.0625,1.39844 a 0.50005,0.50005 0 1 0 0.64062,0.76758 c 0.56927,-0.4753 1.02553,-1.07566 1.33204,-1.75586 a 0.50005,0.50005 0 0 0 -0.44727,-0.71094 z m -3.87305,9.5957 a 0.50064474,0.50064474 0 0 0 0.0508,1 l 0.99805,0 a 0.50005,0.50005 0 1 0 0,-1 l -0.99805,0 a 0.50005,0.50005 0 0 0 -0.0508,0 z m -6.02929,2.5 c -1.09866,0 -2,0.9013 -2,2 a 0.50005,0.50005 0 1 0 1,0 c 0,-0.5583 0.44178,-1 1,-1 0.55821,0 1,0.4417 1,1 a 0.50005,0.50005 0 1 0 1,0 c 0,-1.0987 -0.90135,-2 -2,-2 z m 6,0 c -1.09866,0 -2,0.9013 -2,2 a 0.50005,0.50005 0 1 0 1,0 c 0,-0.5583 0.44178,-1 1,-1 0.55821,0 1,0.4417 1,1 a 0.50005,0.50005 0 1 0 1,0 c 0,-1.0987 -0.90135,-2 -2,-2 z m -5.31055,3.77344 c -0.79187,0 -1.50435,0.4497 -1.73828,1.15821 l 0.0117,-0.0293 c -0.0965,0.2391 -0.2166,0.33133 -0.40039,0.39453 -0.18379,0.063 -0.44812,0.067 -0.73438,0 -0.57252,-0.1384 -1.18175,-0.59864 -1.3457,-0.93164 a 0.50004994,0.50004994 0 0 0 -0.91602,0.041 c -0.12151,0.3168 -0.18494,0.65189 -0.18554,0.98829 1e-5,1.7597 1.64017,3.11328 3.56054,3.11328 1.92038,0 3.55858,-1.35358 3.5586,-3.11328 0,-0.935 -0.85563,-1.6211 -1.81055,-1.6211 z m 4.62109,0 c -0.9549,0 -1.81054,0.6861 -1.81054,1.6211 2e-5,1.7597 1.63822,3.11328 3.55859,3.11328 1.92037,0 3.56055,-1.35358 3.56055,-3.11328 -6e-4,-0.3364 -0.064,-0.67149 -0.18555,-0.98829 a 0.50004994,0.50004994 0 0 0 -0.91602,-0.041 c -0.16394,0.333 -0.77318,0.79324 -1.3457,0.93164 -0.28626,0.069 -0.55059,0.065 -0.73437,0 -0.18379,-0.063 -0.30387,-0.15543 -0.40039,-0.39453 l 0.01,0.0293 c -0.23393,-0.7085 -0.94445,-1.15821 -1.73633,-1.15821 z m 0,0.99805 0,0.002 c 0.40907,0 0.71034,0.24016 0.78711,0.47266 a 0.50004994,0.50004994 0 0 0 0.0117,0.0273 c 0.19443,0.4815 0.57796,0.8209 1.00196,0.9668 0.42398,0.1458 0.872,0.12799 1.29492,0.0254 0.35728,-0.086 0.68914,-0.25471 1,-0.44531 -0.25912,0.914 -1.10004,1.68554 -2.34766,1.68554 -1.45871,0 -2.55858,-0.98618 -2.55859,-2.11328 0,-0.3025 0.31727,-0.62109 0.81054,-0.62109 z m -4.62109,0.002 c 0.49328,0 0.81055,0.3186 0.81055,0.6211 -1e-5,1.1271 -1.09989,2.11328 -2.5586,2.11328 -1.24789,0 -2.09075,-0.77125 -2.34961,-1.68555 0.31125,0.1911 0.64409,0.35881 1.00196,0.44531 0.42291,0.1023 0.87093,0.12011 1.29492,-0.0254 0.42399,-0.1459 0.80752,-0.4853 1.00195,-0.9668 a 0.50004994,0.50004994 0 0 0 0.0117,-0.0293 c 0.0768,-0.2325 0.37806,-0.47266 0.78711,-0.47266 z" baseline-shift="baseline" clip-rule="nonzero" color="#000" color-interpolation="sRGB" color-interpolation-filters="linearRGB" color-rendering="auto" direction="ltr" display="inline" enable-background="accumulate" font-family="sans-serif" font-size="medium" font-stretch="normal" font-variant="normal" opacity="1" transform="translate(0 1020.362)" style="line-height:normal;text-indent:0;text-align:start;text-decoration-line:none;text-decoration-style:solid;text-decoration-color:#000;text-transform:none;white-space:normal;isolation:auto;mix-blend-mode:normal;solid-color:#000;solid-opacity:1" font-style="normal" font-weight="400" image-rendering="auto" letter-spacing="normal" overflow="visible" paint-order="fill markers stroke" shape-rendering="auto" text-anchor="start" text-decoration="none" text-rendering="auto" visibility="visible" word-spacing="normal" writing-mode="lr-tb"/></g></g></svg>